<svg xmlns="http://www.w3.org/2000/svg" xmlns:xlink="http://www.w3.org/1999/xlink" width="500" zoomAndPan="magnify" viewBox="0 0 375 374.999991" height="500" preserveAspectRatio="xMidYMid meet" version="1.0"><defs><g/><clipPath id="a1882c5fae"><path d="M 156 106.019531 L 200 106.019531 L 200 218 L 156 218 Z M 156 106.019531 " clip-rule="nonzero"/></clipPath></defs><rect x="-37.5" width="450" fill="#ffffff" y="-37.499999" height="449.999989" fill-opacity="1"/><rect x="-37.5" width="450" fill="#ffeef9" y="-37.499999" height="449.999989" fill-opacity="1"/><g clip-path="url(#a1882c5fae)"><path fill="#ff50ae" d="M 191.980469 106.019531 C 198.511719 116.835938 206.800781 134.910156 187.539062 156.085938 C 166.277344 179.441406 165.59375 205.375 177.953125 217.507812 C 155.917969 208.835938 146.671875 179.191406 168.394531 151.644531 C 187.152344 127.832031 191.160156 117.539062 191.980469 106.019531 Z M 191.980469 106.019531 " fill-opacity="1" fill-rule="nonzero"/></g><path fill="#ea77c3" d="M 204.203125 133.023438 C 205.09375 143.085938 202.609375 152.214844 191.683594 164.53125 C 169.28125 189.777344 176.359375 225.339844 201.585938 219.148438 C 189.679688 214.777344 185.785156 192.214844 199.71875 176.414062 C 215.222656 158.769531 213.3125 146.113281 204.203125 133.023438 Z M 204.203125 133.023438 " fill-opacity="1" fill-rule="nonzero"/><path fill="#fab2e3" d="M 217.457031 155.925781 C 217.433594 162.617188 217.273438 168.925781 206.914062 179.898438 C 191.5 196.246094 203.292969 220.308594 212.992188 213.773438 C 223.03125 206.992188 227.085938 196.722656 227.699219 183.65625 C 228.316406 170.5625 217.457031 155.925781 217.457031 155.925781 Z M 217.457031 155.925781 " fill-opacity="1" fill-rule="nonzero"/><g fill="#ff50ae" fill-opacity="1"><g transform="translate(114.702544, 259.575715)"><g><path d="M 3.8125 -20.0625 L 3.84375 -10.234375 C 3.84375 -8.765625 3.914062 -7.519531 4.0625 -6.5 C 4.207031 -5.476562 4.507812 -4.675781 4.96875 -4.09375 C 5.4375 -3.519531 6.128906 -3.15625 7.046875 -3 C 7.972656 -2.851562 9.191406 -2.921875 10.703125 -3.203125 C 11.910156 -3.421875 13.117188 -3.640625 14.328125 -3.859375 C 15.546875 -4.078125 16.570312 -4.1875 17.40625 -4.1875 C 18.113281 -4.15625 18.601562 -4.019531 18.875 -3.78125 C 19.144531 -3.550781 19.378906 -3.0625 19.578125 -2.3125 L 20.203125 0 C 19.742188 -0.34375 19.128906 -0.539062 18.359375 -0.59375 C 17.585938 -0.65625 16.75 -0.632812 15.84375 -0.53125 C 14.9375 -0.425781 14.050781 -0.3125 13.1875 -0.1875 C 12.332031 -0.0625 11.570312 0 10.90625 0 C 10.03125 0 9.117188 -0.171875 8.171875 -0.515625 C 7.234375 -0.867188 6.378906 -1.390625 5.609375 -2.078125 C 4.835938 -2.773438 4.25 -3.632812 3.84375 -4.65625 C 3.84375 -3.882812 3.84375 -3.109375 3.84375 -2.328125 C 3.84375 -1.546875 3.84375 -0.769531 3.84375 0 L 0 0 C 0 0 0.0546875 -0.375 0.171875 -1.125 C 0.285156 -1.875 0.34375 -2.742188 0.34375 -3.734375 L 0.34375 -20.0625 C 0.34375 -21.0625 0.285156 -21.929688 0.171875 -22.671875 C 0.0546875 -23.421875 0 -23.796875 0 -23.796875 L 4.140625 -23.796875 C 4.140625 -23.796875 4.082031 -23.421875 3.96875 -22.671875 C 3.863281 -21.929688 3.8125 -21.0625 3.8125 -20.0625 Z M 3.8125 -20.0625 "/></g></g></g><g fill="#ff50ae" fill-opacity="1"><g transform="translate(140.539871, 259.575715)"><g><path d="M 4.140625 -23.796875 C 4.140625 -23.796875 4.082031 -23.421875 3.96875 -22.671875 C 3.863281 -21.929688 3.8125 -21.0625 3.8125 -20.0625 L 3.8125 -7.453125 C 3.8125 -6.648438 3.8125 -5.84375 3.8125 -5.03125 C 3.8125 -4.21875 3.910156 -3.460938 4.109375 -2.765625 C 4.316406 -2.078125 4.695312 -1.515625 5.25 -1.078125 C 5.8125 -0.648438 6.632812 -0.4375 7.71875 -0.4375 C 8.851562 -0.4375 10.101562 -0.71875 11.46875 -1.28125 C 12.84375 -1.851562 14.085938 -2.570312 15.203125 -3.4375 C 15.203125 -3.476562 15.203125 -3.523438 15.203125 -3.578125 C 15.203125 -3.640625 15.203125 -3.691406 15.203125 -3.734375 L 15.203125 -20.0625 C 15.203125 -21.0625 15.144531 -21.929688 15.03125 -22.671875 C 14.914062 -23.421875 14.859375 -23.796875 14.859375 -23.796875 L 19.046875 -23.796875 C 19.046875 -23.796875 18.988281 -23.421875 18.875 -22.671875 C 18.757812 -21.929688 18.703125 -21.0625 18.703125 -20.0625 L 18.703125 -3.734375 C 18.703125 -2.742188 18.757812 -1.875 18.875 -1.125 C 18.988281 -0.375 19.046875 0 19.046875 0 L 14.859375 0 C 14.859375 0 14.890625 -0.191406 14.953125 -0.578125 C 15.023438 -0.960938 15.082031 -1.460938 15.125 -2.078125 C 13.613281 -1.304688 12.191406 -0.765625 10.859375 -0.453125 C 9.535156 -0.148438 8.476562 0 7.6875 0 C 6.707031 0 5.773438 -0.101562 4.890625 -0.3125 C 4.003906 -0.53125 3.234375 -0.890625 2.578125 -1.390625 C 1.835938 -1.929688 1.3125 -2.519531 1 -3.15625 C 0.695312 -3.789062 0.507812 -4.472656 0.4375 -5.203125 C 0.375 -5.929688 0.34375 -6.679688 0.34375 -7.453125 L 0.34375 -20.0625 C 0.34375 -21.0625 0.285156 -21.929688 0.171875 -22.671875 C 0.0546875 -23.421875 0 -23.796875 0 -23.796875 Z M 4.140625 -23.796875 "/></g></g></g><g fill="#ff50ae" fill-opacity="1"><g transform="translate(165.119344, 259.575715)"><g><path d="M 4.65625 -23.796875 L 12.0625 -13.53125 L 19.921875 -23.796875 L 22.171875 -23.796875 C 21.710938 -23.546875 21.175781 -23.179688 20.5625 -22.703125 C 19.957031 -22.234375 19.367188 -21.742188 18.796875 -21.234375 C 18.234375 -20.722656 17.78125 -20.253906 17.4375 -19.828125 L 12.34375 -13.15625 L 19.40625 -3.359375 C 20.019531 -2.546875 20.609375 -1.804688 21.171875 -1.140625 C 21.742188 -0.472656 22.078125 -0.09375 22.171875 0 L 17.546875 0 L 10.125 -10.265625 L 2.25 0 C 1.882812 0 1.515625 0 1.140625 0 C 0.765625 0 0.382812 0 0 0 C 0.476562 -0.269531 1.019531 -0.632812 1.625 -1.09375 C 2.238281 -1.5625 2.828125 -2.054688 3.390625 -2.578125 C 3.960938 -3.097656 4.421875 -3.578125 4.765625 -4.015625 L 9.859375 -10.640625 L 3.4375 -19.515625 C 3.164062 -19.898438 2.8125 -20.378906 2.375 -20.953125 C 1.945312 -21.535156 1.515625 -22.09375 1.078125 -22.625 C 0.648438 -23.15625 0.289062 -23.546875 0 -23.796875 Z M 4.65625 -23.796875 "/></g></g></g><g fill="#ff50ae" fill-opacity="1"><g transform="translate(192.894456, 259.575715)"><g><path d="M 0.0625 -6.125 C -0.113281 -7.113281 -0.00390625 -8.019531 0.390625 -8.84375 C 0.785156 -9.675781 1.378906 -10.304688 2.171875 -10.734375 C 2.960938 -11.171875 3.867188 -11.265625 4.890625 -11.015625 C 4.367188 -10.859375 3.984375 -10.550781 3.734375 -10.09375 C 3.484375 -9.644531 3.347656 -9.144531 3.328125 -8.59375 C 3.304688 -8.050781 3.34375 -7.546875 3.4375 -7.078125 C 3.726562 -5.753906 4.34375 -4.632812 5.28125 -3.71875 C 6.226562 -2.800781 7.351562 -2.109375 8.65625 -1.640625 C 9.957031 -1.179688 11.296875 -0.957031 12.671875 -0.96875 C 14.054688 -0.976562 15.328125 -1.242188 16.484375 -1.765625 C 17.460938 -2.222656 18.207031 -2.820312 18.71875 -3.5625 C 19.226562 -4.3125 19.503906 -5.117188 19.546875 -5.984375 C 19.597656 -6.847656 19.40625 -7.679688 18.96875 -8.484375 C 18.539062 -9.285156 17.882812 -9.972656 17 -10.546875 C 15.882812 -11.242188 14.660156 -11.722656 13.328125 -11.984375 C 11.992188 -12.242188 10.640625 -12.445312 9.265625 -12.59375 C 7.890625 -12.738281 6.582031 -12.972656 5.34375 -13.296875 C 4.5 -13.523438 3.71875 -13.835938 3 -14.234375 C 2.289062 -14.628906 1.71875 -15.15625 1.28125 -15.8125 C 0.851562 -16.46875 0.640625 -17.269531 0.640625 -18.21875 C 0.617188 -19.082031 0.796875 -19.8125 1.171875 -20.40625 C 1.546875 -21.007812 2.039062 -21.519531 2.65625 -21.9375 C 3.582031 -22.59375 4.753906 -23.066406 6.171875 -23.359375 C 7.585938 -23.648438 9.078125 -23.796875 10.640625 -23.796875 C 12.523438 -23.796875 14.347656 -23.59375 16.109375 -23.1875 C 17.878906 -22.78125 19.296875 -22.191406 20.359375 -21.421875 L 19.109375 -18.703125 C 17.953125 -19.703125 16.675781 -20.601562 15.28125 -21.40625 C 13.882812 -22.207031 12.414062 -22.742188 10.875 -23.015625 C 10.3125 -23.128906 9.644531 -23.1875 8.875 -23.1875 C 8.101562 -23.1875 7.328125 -23.113281 6.546875 -22.96875 C 5.765625 -22.820312 5.054688 -22.578125 4.421875 -22.234375 C 3.609375 -21.804688 3.054688 -21.242188 2.765625 -20.546875 C 2.484375 -19.859375 2.484375 -19.1875 2.765625 -18.53125 C 3.054688 -17.875 3.65625 -17.34375 4.5625 -16.9375 C 5.414062 -16.570312 6.410156 -16.320312 7.546875 -16.1875 C 8.679688 -16.050781 9.875 -15.921875 11.125 -15.796875 C 12.382812 -15.671875 13.625 -15.4375 14.84375 -15.09375 C 16.070312 -14.757812 17.195312 -14.191406 18.21875 -13.390625 C 19.21875 -12.617188 19.976562 -11.660156 20.5 -10.515625 C 21.019531 -9.378906 21.15625 -8.09375 20.90625 -6.65625 C 20.707031 -5.4375 20.253906 -4.398438 19.546875 -3.546875 C 18.847656 -2.703125 17.988281 -2.019531 16.96875 -1.5 C 15.945312 -0.976562 14.863281 -0.597656 13.71875 -0.359375 C 12.570312 -0.117188 11.457031 0 10.375 0 C 9.351562 0 8.285156 -0.101562 7.171875 -0.3125 C 6.066406 -0.53125 5.015625 -0.882812 4.015625 -1.375 C 3.015625 -1.863281 2.15625 -2.5 1.4375 -3.28125 C 0.726562 -4.0625 0.269531 -5.007812 0.0625 -6.125 Z M 0.0625 -6.125 "/></g></g></g><g fill="#ff50ae" fill-opacity="1"><g transform="translate(219.445697, 259.575715)"><g><path d="M 3.8125 -3.734375 C 3.8125 -2.742188 3.863281 -1.875 3.96875 -1.125 C 4.082031 -0.375 4.140625 0 4.140625 0 L 0 0 C 0 0 0.0507812 -0.375 0.15625 -1.125 C 0.257812 -1.875 0.3125 -2.742188 0.3125 -3.734375 L 0.3125 -20.0625 C 0.3125 -21.0625 0.257812 -21.929688 0.15625 -22.671875 C 0.0507812 -23.421875 0 -23.796875 0 -23.796875 L 12.0625 -23.796875 C 13.3125 -23.796875 14.476562 -23.570312 15.5625 -23.125 C 16.65625 -22.6875 17.535156 -22.023438 18.203125 -21.140625 C 18.867188 -20.265625 19.203125 -19.144531 19.203125 -17.78125 C 19.203125 -16.507812 18.941406 -15.488281 18.421875 -14.71875 C 17.898438 -13.945312 17.207031 -13.335938 16.34375 -12.890625 C 15.488281 -12.453125 14.539062 -12.097656 13.5 -11.828125 C 12.613281 -11.597656 11.660156 -11.347656 10.640625 -11.078125 C 9.617188 -10.804688 8.691406 -10.4375 7.859375 -9.96875 C 7.035156 -9.507812 6.445312 -8.835938 6.09375 -7.953125 C 6.132812 -8.679688 6.441406 -9.304688 7.015625 -9.828125 C 7.597656 -10.347656 8.265625 -10.800781 9.015625 -11.1875 C 9.828125 -11.613281 10.613281 -11.984375 11.375 -12.296875 C 12.132812 -12.617188 12.820312 -12.988281 13.4375 -13.40625 C 14.0625 -13.832031 14.554688 -14.382812 14.921875 -15.0625 C 15.285156 -15.738281 15.46875 -16.644531 15.46875 -17.78125 C 15.46875 -19.28125 15.171875 -20.425781 14.578125 -21.21875 C 13.992188 -22.007812 13.195312 -22.554688 12.1875 -22.859375 C 11.175781 -23.171875 10.023438 -23.328125 8.734375 -23.328125 L 3.8125 -23.328125 Z M 3.8125 -3.734375 "/></g></g></g><g fill="#ff50ae" fill-opacity="1"><g transform="translate(244.195147, 259.575715)"><g><path d="M 14.140625 -23.796875 L 22.671875 -3.328125 C 23.015625 -2.535156 23.367188 -1.8125 23.734375 -1.15625 C 24.097656 -0.5 24.3125 -0.113281 24.375 0 L 20.265625 0 L 12.140625 -19.484375 C 11.929688 -19.984375 11.660156 -20.613281 11.328125 -21.375 C 11.003906 -22.132812 10.6875 -22.757812 10.375 -23.25 C 10.144531 -22.125 9.71875 -20.925781 9.09375 -19.65625 C 8.46875 -18.382812 7.757812 -17.097656 6.96875 -15.796875 C 6.175781 -14.492188 5.410156 -13.21875 4.671875 -11.96875 C 3.929688 -10.71875 3.328125 -9.539062 2.859375 -8.4375 C 2.242188 -6.976562 1.957031 -5.804688 2 -4.921875 C 2.050781 -4.046875 2.332031 -3.46875 2.84375 -3.1875 C 3.351562 -2.914062 4.015625 -2.972656 4.828125 -3.359375 C 5.328125 -3.609375 5.859375 -3.976562 6.421875 -4.46875 C 6.992188 -4.957031 7.570312 -5.5 8.15625 -6.09375 C 8.75 -6.695312 9.304688 -7.289062 9.828125 -7.875 C 10.347656 -8.46875 10.8125 -8.984375 11.21875 -9.421875 C 11.644531 -9.867188 12.128906 -10.210938 12.671875 -10.453125 C 13.222656 -10.691406 13.769531 -10.6875 14.3125 -10.4375 C 14.539062 -10.34375 14.796875 -10.164062 15.078125 -9.90625 C 15.359375 -9.644531 15.632812 -9.375 15.90625 -9.09375 C 16.175781 -8.8125 16.40625 -8.578125 16.59375 -8.390625 C 16.09375 -8.503906 15.535156 -8.410156 14.921875 -8.109375 C 14.316406 -7.804688 13.726562 -7.40625 13.15625 -6.90625 C 12.519531 -6.363281 11.863281 -5.707031 11.1875 -4.9375 C 10.507812 -4.164062 9.804688 -3.398438 9.078125 -2.640625 C 8.347656 -1.878906 7.585938 -1.25 6.796875 -0.75 C 6.003906 -0.25 5.191406 0 4.359375 0 C 2.566406 0 1.363281 -0.722656 0.75 -2.171875 C 0.425781 -2.960938 0.320312 -3.8125 0.4375 -4.71875 C 0.550781 -5.632812 0.804688 -6.5625 1.203125 -7.5 C 1.597656 -8.4375 2.066406 -9.359375 2.609375 -10.265625 C 3.160156 -11.171875 3.71875 -12.023438 4.28125 -12.828125 C 4.851562 -13.640625 5.34375 -14.363281 5.75 -15 C 6.0625 -15.46875 6.445312 -16.085938 6.90625 -16.859375 C 7.375 -17.628906 7.847656 -18.453125 8.328125 -19.328125 C 8.804688 -20.203125 9.207031 -21.035156 9.53125 -21.828125 C 9.863281 -22.617188 10.039062 -23.273438 10.0625 -23.796875 Z M 14.140625 -23.796875 "/></g></g></g></svg>